<mxfile host="Electron" modified="2023-05-22T02:49:18.954Z" agent="Mozilla/5.0 (Windows NT 10.0; Win64; x64) AppleWebKit/537.36 (KHTML, like Gecko) draw.io/21.1.2 Chrome/106.0.5249.199 Electron/21.4.3 Safari/537.36" etag="6s1tiZbQIkMIo0VJxTnn" version="21.1.2" type="device">
  <diagram name="ページ1" id="FFMueQO-EUXQi7l5rMOx">
    <mxGraphModel dx="1182" dy="690" grid="1" gridSize="10" guides="0" tooltips="1" connect="1" arrows="0" fold="1" page="1" pageScale="1" pageWidth="827" pageHeight="1169" math="1" shadow="0">
      <root>
        <mxCell id="0" />
        <mxCell id="1" parent="0" />
        <mxCell id="jys84hhHYNoMnZiyULOi-4" style="edgeStyle=orthogonalEdgeStyle;rounded=0;orthogonalLoop=1;jettySize=auto;html=1;exitX=1;exitY=0;exitDx=0;exitDy=0;exitPerimeter=0;entryX=1;entryY=0.5;entryDx=0;entryDy=0;entryPerimeter=0;endArrow=none;endFill=0;" edge="1" parent="1" source="cbPaqE-doftvkdimma7p-13" target="jys84hhHYNoMnZiyULOi-3">
          <mxGeometry relative="1" as="geometry" />
        </mxCell>
        <mxCell id="cbPaqE-doftvkdimma7p-13" value="" style="verticalLabelPosition=bottom;shadow=0;dashed=0;align=center;html=1;verticalAlign=top;shape=mxgraph.electrical.transistors.nmos;pointerEvents=1;flipH=1;" parent="1" vertex="1">
          <mxGeometry x="132.5" y="530" width="60" height="100" as="geometry" />
        </mxCell>
        <mxCell id="SY9ngFIHZapkgAU1wPwu-58" style="edgeStyle=orthogonalEdgeStyle;shape=connector;rounded=0;orthogonalLoop=1;jettySize=auto;html=1;exitX=1;exitY=0;exitDx=0;exitDy=0;exitPerimeter=0;labelBackgroundColor=default;strokeColor=default;fontFamily=Helvetica;fontSize=11;fontColor=default;endArrow=none;endFill=0;" parent="1" source="cbPaqE-doftvkdimma7p-14" edge="1">
          <mxGeometry relative="1" as="geometry">
            <mxPoint x="252.55555555555554" y="490.0000000000001" as="targetPoint" />
          </mxGeometry>
        </mxCell>
        <mxCell id="cbPaqE-doftvkdimma7p-14" value="" style="verticalLabelPosition=bottom;shadow=0;dashed=0;align=center;html=1;verticalAlign=top;shape=mxgraph.electrical.transistors.nmos;pointerEvents=1;" parent="1" vertex="1">
          <mxGeometry x="192.5" y="530" width="60" height="100" as="geometry" />
        </mxCell>
        <mxCell id="cbPaqE-doftvkdimma7p-108" value="" style="group;flipV=1;flipH=1;" parent="1" vertex="1" connectable="0">
          <mxGeometry x="182.5" y="540" width="80" height="50" as="geometry" />
        </mxCell>
        <mxCell id="cbPaqE-doftvkdimma7p-109" value="" style="endArrow=none;html=1;rounded=0;labelBackgroundColor=default;strokeColor=default;fontFamily=Helvetica;fontSize=11;fontColor=default;shape=connector;" parent="cbPaqE-doftvkdimma7p-108" edge="1">
          <mxGeometry width="50" height="50" relative="1" as="geometry">
            <mxPoint x="70" y="10" as="sourcePoint" />
            <mxPoint x="10" y="40" as="targetPoint" />
            <Array as="points">
              <mxPoint x="10" y="10" />
            </Array>
          </mxGeometry>
        </mxCell>
        <mxCell id="cbPaqE-doftvkdimma7p-110" value="" style="shape=waypoint;sketch=0;fillStyle=solid;size=6;pointerEvents=1;points=[];fillColor=none;resizable=0;rotatable=0;perimeter=centerPerimeter;snapToPoint=1;" parent="cbPaqE-doftvkdimma7p-108" vertex="1">
          <mxGeometry y="30" width="20" height="20" as="geometry" />
        </mxCell>
        <mxCell id="SY9ngFIHZapkgAU1wPwu-5" value="" style="shape=flexArrow;endArrow=classic;html=1;rounded=0;endWidth=68;endSize=5.890000000000001;width=44;" parent="1" edge="1">
          <mxGeometry width="50" height="50" relative="1" as="geometry">
            <mxPoint x="320" y="530" as="sourcePoint" />
            <mxPoint x="370" y="530" as="targetPoint" />
          </mxGeometry>
        </mxCell>
        <mxCell id="jys84hhHYNoMnZiyULOi-7" style="edgeStyle=orthogonalEdgeStyle;shape=connector;rounded=0;orthogonalLoop=1;jettySize=auto;html=1;exitX=0.5;exitY=0;exitDx=0;exitDy=0;exitPerimeter=0;labelBackgroundColor=default;strokeColor=default;fontFamily=Helvetica;fontSize=11;fontColor=default;endArrow=none;endFill=0;" edge="1" parent="1" source="SY9ngFIHZapkgAU1wPwu-53">
          <mxGeometry relative="1" as="geometry">
            <mxPoint x="252.5" y="400" as="targetPoint" />
          </mxGeometry>
        </mxCell>
        <mxCell id="SY9ngFIHZapkgAU1wPwu-53" value="" style="pointerEvents=1;verticalLabelPosition=bottom;shadow=0;dashed=0;align=center;html=1;verticalAlign=top;shape=mxgraph.electrical.signal_sources.source;aspect=fixed;points=[[0.5,0,0],[1,0.5,0],[0.5,1,0],[0,0.5,0]];elSignalType=dc2;" parent="1" vertex="1">
          <mxGeometry x="222.5" y="430" width="60" height="60" as="geometry" />
        </mxCell>
        <mxCell id="SY9ngFIHZapkgAU1wPwu-57" value="" style="endArrow=none;html=1;rounded=0;labelBackgroundColor=default;strokeColor=default;fontFamily=Helvetica;fontSize=11;fontColor=default;shape=connector;" parent="1" edge="1">
          <mxGeometry width="50" height="50" relative="1" as="geometry">
            <mxPoint x="112.5" y="400" as="sourcePoint" />
            <mxPoint x="272.5" y="400" as="targetPoint" />
          </mxGeometry>
        </mxCell>
        <mxCell id="SY9ngFIHZapkgAU1wPwu-13" style="edgeStyle=orthogonalEdgeStyle;shape=connector;rounded=0;orthogonalLoop=1;jettySize=auto;html=1;exitX=0.5;exitY=0;exitDx=0;exitDy=0;exitPerimeter=0;labelBackgroundColor=default;strokeColor=default;fontFamily=Helvetica;fontSize=11;fontColor=default;endArrow=none;endFill=0;" parent="1" source="SY9ngFIHZapkgAU1wPwu-6" edge="1">
          <mxGeometry relative="1" as="geometry">
            <mxPoint x="519.8571428571429" y="480" as="targetPoint" />
          </mxGeometry>
        </mxCell>
        <mxCell id="SY9ngFIHZapkgAU1wPwu-14" style="edgeStyle=orthogonalEdgeStyle;shape=connector;rounded=0;orthogonalLoop=1;jettySize=auto;html=1;exitX=0.5;exitY=1;exitDx=0;exitDy=0;exitPerimeter=0;labelBackgroundColor=default;strokeColor=default;fontFamily=Helvetica;fontSize=11;fontColor=default;endArrow=none;endFill=0;" parent="1" source="SY9ngFIHZapkgAU1wPwu-6" edge="1">
          <mxGeometry relative="1" as="geometry">
            <mxPoint x="519.8571428571429" y="600" as="targetPoint" />
          </mxGeometry>
        </mxCell>
        <mxCell id="SY9ngFIHZapkgAU1wPwu-6" value="" style="pointerEvents=1;verticalLabelPosition=bottom;shadow=0;dashed=0;align=center;html=1;verticalAlign=top;shape=mxgraph.electrical.signal_sources.source;aspect=fixed;points=[[0.5,0,0],[1,0.5,0],[0.5,1,0],[0,0.5,0]];elSignalType=dc2;container=0;" parent="1" vertex="1">
          <mxGeometry x="490" y="510" width="60" height="60" as="geometry" />
        </mxCell>
        <mxCell id="SY9ngFIHZapkgAU1wPwu-11" style="edgeStyle=orthogonalEdgeStyle;rounded=0;orthogonalLoop=1;jettySize=auto;html=1;exitX=0;exitY=0.5;exitDx=0;exitDy=0;exitPerimeter=0;endArrow=none;endFill=0;" parent="1" source="SY9ngFIHZapkgAU1wPwu-10" edge="1">
          <mxGeometry relative="1" as="geometry">
            <mxPoint x="520" y="480" as="targetPoint" />
            <Array as="points">
              <mxPoint x="640" y="480" />
            </Array>
          </mxGeometry>
        </mxCell>
        <mxCell id="SY9ngFIHZapkgAU1wPwu-12" style="edgeStyle=orthogonalEdgeStyle;shape=connector;rounded=0;orthogonalLoop=1;jettySize=auto;html=1;exitDx=0;exitDy=0;exitPerimeter=0;labelBackgroundColor=default;strokeColor=default;fontFamily=Helvetica;fontSize=11;fontColor=default;endArrow=none;endFill=0;" parent="1" source="SY9ngFIHZapkgAU1wPwu-48" edge="1">
          <mxGeometry relative="1" as="geometry">
            <mxPoint x="520" y="600" as="targetPoint" />
            <Array as="points" />
          </mxGeometry>
        </mxCell>
        <mxCell id="SY9ngFIHZapkgAU1wPwu-10" value="" style="pointerEvents=1;verticalLabelPosition=bottom;shadow=0;dashed=0;align=center;html=1;verticalAlign=top;shape=mxgraph.electrical.resistors.resistor_2;direction=south;container=0;" parent="1" vertex="1">
          <mxGeometry x="630" y="490" width="20" height="100" as="geometry" />
        </mxCell>
        <mxCell id="SY9ngFIHZapkgAU1wPwu-62" value="" style="edgeStyle=orthogonalEdgeStyle;shape=connector;rounded=0;orthogonalLoop=1;jettySize=auto;html=1;exitX=1;exitY=0.5;exitDx=0;exitDy=0;exitPerimeter=0;labelBackgroundColor=default;strokeColor=default;fontFamily=Helvetica;fontSize=11;fontColor=default;endArrow=none;endFill=0;" parent="1" source="SY9ngFIHZapkgAU1wPwu-10" target="SY9ngFIHZapkgAU1wPwu-48" edge="1">
          <mxGeometry relative="1" as="geometry">
            <mxPoint x="520" y="600" as="targetPoint" />
            <mxPoint x="640" y="590" as="sourcePoint" />
            <Array as="points">
              <mxPoint x="640" y="610" />
              <mxPoint x="520" y="610" />
            </Array>
          </mxGeometry>
        </mxCell>
        <mxCell id="SY9ngFIHZapkgAU1wPwu-48" value="" style="shape=waypoint;sketch=0;fillStyle=solid;size=6;pointerEvents=1;points=[];fillColor=none;resizable=0;rotatable=0;perimeter=centerPerimeter;snapToPoint=1;fontFamily=Helvetica;fontSize=11;fontColor=default;container=0;" parent="1" vertex="1">
          <mxGeometry x="510" y="600" width="20" height="20" as="geometry" />
        </mxCell>
        <mxCell id="SY9ngFIHZapkgAU1wPwu-63" value="" style="endArrow=none;html=1;rounded=0;labelBackgroundColor=default;strokeColor=default;fontFamily=Helvetica;fontSize=11;fontColor=default;shape=connector;" parent="1" edge="1">
          <mxGeometry width="50" height="50" relative="1" as="geometry">
            <mxPoint x="520" y="660" as="sourcePoint" />
            <mxPoint x="520" y="600" as="targetPoint" />
          </mxGeometry>
        </mxCell>
        <mxCell id="SY9ngFIHZapkgAU1wPwu-64" value="" style="verticalLabelPosition=bottom;align=center;dashed=0;html=1;verticalAlign=top;shape=mxgraph.pid.fittings.open_disc;fontFamily=Helvetica;fontSize=11;fontColor=default;rotation=-90;aspect=fixed;" parent="1" vertex="1">
          <mxGeometry x="725" y="470" width="6" height="21" as="geometry" />
        </mxCell>
        <mxCell id="SY9ngFIHZapkgAU1wPwu-65" value="" style="verticalLabelPosition=bottom;align=center;dashed=0;html=1;verticalAlign=top;shape=mxgraph.pid.fittings.open_disc;fontFamily=Helvetica;fontSize=11;fontColor=default;rotation=-90;aspect=fixed;" parent="1" vertex="1">
          <mxGeometry x="725" y="600" width="6" height="21" as="geometry" />
        </mxCell>
        <mxCell id="SY9ngFIHZapkgAU1wPwu-68" style="edgeStyle=orthogonalEdgeStyle;shape=connector;rounded=0;orthogonalLoop=1;jettySize=auto;html=1;exitX=0.5;exitY=1;exitDx=0;exitDy=0;exitPerimeter=0;labelBackgroundColor=default;strokeColor=default;fontFamily=Helvetica;fontSize=11;fontColor=default;endArrow=none;endFill=0;" parent="1" source="SY9ngFIHZapkgAU1wPwu-66" edge="1">
          <mxGeometry relative="1" as="geometry">
            <mxPoint x="880.2857142857142" y="610.5" as="targetPoint" />
          </mxGeometry>
        </mxCell>
        <mxCell id="SY9ngFIHZapkgAU1wPwu-73" style="edgeStyle=orthogonalEdgeStyle;shape=connector;rounded=0;orthogonalLoop=1;jettySize=auto;html=1;exitX=0.5;exitY=0;exitDx=0;exitDy=0;exitPerimeter=0;labelBackgroundColor=default;strokeColor=default;fontFamily=Helvetica;fontSize=11;fontColor=default;endArrow=none;endFill=0;" parent="1" source="SY9ngFIHZapkgAU1wPwu-66" edge="1">
          <mxGeometry relative="1" as="geometry">
            <mxPoint x="880" y="480.5000000000001" as="targetPoint" />
          </mxGeometry>
        </mxCell>
        <mxCell id="SY9ngFIHZapkgAU1wPwu-66" value="" style="pointerEvents=1;verticalLabelPosition=bottom;shadow=0;dashed=0;align=center;html=1;verticalAlign=top;shape=mxgraph.electrical.signal_sources.source;aspect=fixed;points=[[0.5,0,0],[1,0.5,0],[0.5,1,0],[0,0.5,0]];elSignalType=dc2;container=0;" parent="1" vertex="1">
          <mxGeometry x="850" y="520.5" width="60" height="60" as="geometry" />
        </mxCell>
        <mxCell id="SY9ngFIHZapkgAU1wPwu-71" style="edgeStyle=orthogonalEdgeStyle;shape=connector;rounded=0;orthogonalLoop=1;jettySize=auto;html=1;exitX=1;exitY=0.5;exitDx=0;exitDy=0;exitPerimeter=0;labelBackgroundColor=default;strokeColor=default;fontFamily=Helvetica;fontSize=11;fontColor=default;endArrow=none;endFill=0;" parent="1" source="SY9ngFIHZapkgAU1wPwu-67" edge="1">
          <mxGeometry relative="1" as="geometry">
            <mxPoint x="960" y="610.5" as="targetPoint" />
          </mxGeometry>
        </mxCell>
        <mxCell id="SY9ngFIHZapkgAU1wPwu-72" style="edgeStyle=orthogonalEdgeStyle;shape=connector;rounded=0;orthogonalLoop=1;jettySize=auto;html=1;exitX=0;exitY=0.5;exitDx=0;exitDy=0;exitPerimeter=0;labelBackgroundColor=default;strokeColor=default;fontFamily=Helvetica;fontSize=11;fontColor=default;endArrow=none;endFill=0;" parent="1" source="SY9ngFIHZapkgAU1wPwu-67" edge="1">
          <mxGeometry relative="1" as="geometry">
            <mxPoint x="960" y="480.5000000000001" as="targetPoint" />
          </mxGeometry>
        </mxCell>
        <mxCell id="SY9ngFIHZapkgAU1wPwu-67" value="" style="pointerEvents=1;verticalLabelPosition=bottom;shadow=0;dashed=0;align=center;html=1;verticalAlign=top;shape=mxgraph.electrical.resistors.resistor_2;direction=south;container=0;" parent="1" vertex="1">
          <mxGeometry x="950" y="500.5" width="20" height="100" as="geometry" />
        </mxCell>
        <mxCell id="SY9ngFIHZapkgAU1wPwu-77" value="" style="endArrow=none;html=1;rounded=0;labelBackgroundColor=default;strokeColor=default;fontFamily=Helvetica;fontSize=11;fontColor=default;shape=connector;" parent="1" edge="1">
          <mxGeometry width="50" height="50" relative="1" as="geometry">
            <mxPoint x="880" y="480.5" as="sourcePoint" />
            <mxPoint x="960" y="480.5" as="targetPoint" />
          </mxGeometry>
        </mxCell>
        <mxCell id="SY9ngFIHZapkgAU1wPwu-78" value="" style="endArrow=none;html=1;rounded=0;labelBackgroundColor=default;strokeColor=default;fontFamily=Helvetica;fontSize=11;fontColor=default;shape=connector;" parent="1" edge="1">
          <mxGeometry width="50" height="50" relative="1" as="geometry">
            <mxPoint x="730" y="610.5" as="sourcePoint" />
            <mxPoint x="960" y="610.5" as="targetPoint" />
          </mxGeometry>
        </mxCell>
        <mxCell id="SY9ngFIHZapkgAU1wPwu-79" value="" style="endArrow=none;html=1;rounded=0;labelBackgroundColor=default;strokeColor=default;fontFamily=Helvetica;fontSize=11;fontColor=default;shape=connector;" parent="1" edge="1">
          <mxGeometry width="50" height="50" relative="1" as="geometry">
            <mxPoint x="730" y="480.5" as="sourcePoint" />
            <mxPoint x="960" y="480.5" as="targetPoint" />
          </mxGeometry>
        </mxCell>
        <mxCell id="jys84hhHYNoMnZiyULOi-1" value="" style="pointerEvents=1;verticalLabelPosition=bottom;shadow=0;dashed=0;align=center;html=1;verticalAlign=top;shape=mxgraph.electrical.signal_sources.signal_ground;" vertex="1" parent="1">
          <mxGeometry x="497.5" y="650" width="45" height="30" as="geometry" />
        </mxCell>
        <mxCell id="jys84hhHYNoMnZiyULOi-8" style="edgeStyle=orthogonalEdgeStyle;shape=connector;rounded=0;orthogonalLoop=1;jettySize=auto;html=1;exitX=0;exitY=0.5;exitDx=0;exitDy=0;exitPerimeter=0;labelBackgroundColor=default;strokeColor=default;fontFamily=Helvetica;fontSize=11;fontColor=default;endArrow=none;endFill=0;" edge="1" parent="1" source="jys84hhHYNoMnZiyULOi-3">
          <mxGeometry relative="1" as="geometry">
            <mxPoint x="132.5" y="400" as="targetPoint" />
          </mxGeometry>
        </mxCell>
        <mxCell id="jys84hhHYNoMnZiyULOi-3" value="" style="pointerEvents=1;verticalLabelPosition=bottom;shadow=0;dashed=0;align=center;html=1;verticalAlign=top;shape=mxgraph.electrical.resistors.resistor_2;direction=south;container=0;" vertex="1" parent="1">
          <mxGeometry x="122.5" y="420" width="20" height="100" as="geometry" />
        </mxCell>
        <mxCell id="jys84hhHYNoMnZiyULOi-5" value="" style="pointerEvents=1;verticalLabelPosition=bottom;shadow=0;dashed=0;align=center;html=1;verticalAlign=top;shape=mxgraph.electrical.signal_sources.signal_ground;fontFamily=Helvetica;fontSize=11;fontColor=default;" vertex="1" parent="1">
          <mxGeometry x="110" y="620" width="45" height="30" as="geometry" />
        </mxCell>
        <mxCell id="jys84hhHYNoMnZiyULOi-6" value="" style="pointerEvents=1;verticalLabelPosition=bottom;shadow=0;dashed=0;align=center;html=1;verticalAlign=top;shape=mxgraph.electrical.signal_sources.signal_ground;fontFamily=Helvetica;fontSize=11;fontColor=default;" vertex="1" parent="1">
          <mxGeometry x="230" y="620" width="45" height="30" as="geometry" />
        </mxCell>
        <mxCell id="jys84hhHYNoMnZiyULOi-9" value="" style="verticalLabelPosition=bottom;align=center;dashed=0;html=1;verticalAlign=top;shape=mxgraph.pid.fittings.open_disc;fontFamily=Helvetica;fontSize=11;fontColor=default;rotation=-90;aspect=fixed;direction=west;" vertex="1" parent="1">
          <mxGeometry x="960" y="470" width="6" height="21" as="geometry" />
        </mxCell>
        <mxCell id="jys84hhHYNoMnZiyULOi-14" style="edgeStyle=orthogonalEdgeStyle;shape=connector;rounded=0;orthogonalLoop=1;jettySize=auto;html=1;exitX=0;exitY=0.5;exitDx=0;exitDy=0;exitPerimeter=0;entryX=0.5;entryY=0;entryDx=0;entryDy=0;entryPerimeter=0;labelBackgroundColor=default;strokeColor=default;fontFamily=Helvetica;fontSize=11;fontColor=default;endArrow=none;endFill=0;" edge="1" parent="1" source="jys84hhHYNoMnZiyULOi-12" target="jys84hhHYNoMnZiyULOi-13">
          <mxGeometry relative="1" as="geometry" />
        </mxCell>
        <mxCell id="jys84hhHYNoMnZiyULOi-12" value="" style="pointerEvents=1;verticalLabelPosition=bottom;shadow=0;dashed=0;align=center;html=1;verticalAlign=top;shape=mxgraph.electrical.resistors.resistor_2;direction=south;container=0;" vertex="1" parent="1">
          <mxGeometry x="510" y="380" width="20" height="100" as="geometry" />
        </mxCell>
        <mxCell id="jys84hhHYNoMnZiyULOi-13" value="" style="pointerEvents=1;verticalLabelPosition=bottom;shadow=0;dashed=0;align=center;html=1;verticalAlign=top;shape=mxgraph.electrical.signal_sources.signal_ground;" vertex="1" parent="1">
          <mxGeometry x="417.5" y="400" width="45" height="30" as="geometry" />
        </mxCell>
        <mxCell id="jys84hhHYNoMnZiyULOi-15" value="" style="shape=waypoint;sketch=0;fillStyle=solid;size=6;pointerEvents=1;points=[];fillColor=none;resizable=0;rotatable=0;perimeter=centerPerimeter;snapToPoint=1;fontFamily=Helvetica;fontSize=11;fontColor=default;container=0;" vertex="1" parent="1">
          <mxGeometry x="870.5" y="600" width="20" height="20" as="geometry" />
        </mxCell>
        <mxCell id="jys84hhHYNoMnZiyULOi-18" style="edgeStyle=orthogonalEdgeStyle;shape=connector;rounded=0;orthogonalLoop=1;jettySize=auto;html=1;exitX=0.5;exitY=0;exitDx=0;exitDy=0;exitPerimeter=0;entryX=0.437;entryY=0.588;entryDx=0;entryDy=0;entryPerimeter=0;labelBackgroundColor=default;strokeColor=default;fontFamily=Helvetica;fontSize=11;fontColor=default;endArrow=none;endFill=0;" edge="1" parent="1" source="jys84hhHYNoMnZiyULOi-17" target="jys84hhHYNoMnZiyULOi-15">
          <mxGeometry relative="1" as="geometry" />
        </mxCell>
        <mxCell id="jys84hhHYNoMnZiyULOi-17" value="" style="pointerEvents=1;verticalLabelPosition=bottom;shadow=0;dashed=0;align=center;html=1;verticalAlign=top;shape=mxgraph.electrical.signal_sources.signal_ground;" vertex="1" parent="1">
          <mxGeometry x="858" y="650" width="45" height="30" as="geometry" />
        </mxCell>
      </root>
    </mxGraphModel>
  </diagram>
</mxfile>
